<svg xmlns="http://www.w3.org/2000/svg" id="logo" viewBox="0 0 1290.58 508.87">
  <defs>
    <style>
      .cls-1 {
        stroke-width: 0px;
      }
    </style>
  </defs>
  <path class="cls-1" fill="currentColor" d="M127.13,381.4l91.52-126.06L127.13,127.13h65.53l57.33,83.69h3.56l58.05-83.69h61.96l-91.16,126.06,91.52,128.2h-65.53l-57.33-84.04h-3.2l-58.4,84.04h-62.32Z"/>
  <g>
    <path class="cls-1" d="M456.29,308.56v-108.51h43.31c32.37,0,42.71,16.57,42.71,36.63s-10.33,36.78-42.71,36.78h-21.12v35.11h-22.19ZM478.48,253.39h19.45c14.29,0,21.12-5.47,21.12-16.72s-6.84-16.57-21.12-16.57h-19.45v33.28Z"/>
    <path class="cls-1" d="M554.47,308.56v-108.51h46.35c31.46,0,40.58,14.89,40.58,31.16,0,14.74-5.62,23.86-18.54,28.42v1.52c11.09,3.8,16.11,11.4,19.3,26.6l4.26,20.82h-22.64l-3.95-20.37c-2.28-11.85-7.29-17.63-20.97-17.63h-22.19v37.99h-22.19ZM576.66,250.5h21.58c13.53,0,19.91-5.47,19.91-15.5s-6.38-14.89-19.91-14.89h-21.58v30.4Z"/>
    <path class="cls-1" d="M648.55,308.56l41.03-108.51h27.81l41.03,108.51h-25.23l-8.05-23.25h-44.38l-8.05,23.25h-24.17ZM687.3,265.24h31.16l-14.74-41.64h-1.52l-14.89,41.64Z"/>
    <path class="cls-1" d="M762.99,308.56v-108.51h22.19v44.23h51.83v-44.23h22.19v108.51h-22.19v-44.23h-51.83v44.23h-22.19Z"/>
    <path class="cls-1" d="M863.75,308.56l41.03-108.51h27.81l41.03,108.51h-25.23l-8.06-23.25h-44.38l-8.05,23.25h-24.16ZM902.5,265.24h31.16l-14.74-41.64h-1.52l-14.89,41.64Z"/>
    <path class="cls-1" d="M1045.67,308.56v-85.72h-1.52l-22.04,12.77-9.73-16.57,33.28-19h21.58v108.51h-21.58Z"/>
    <path class="cls-1" d="M1079.1,254.3c0-42.86,20.67-56.38,42.25-56.38s42.1,13.53,42.1,56.38-20.67,56.38-42.1,56.38-42.25-13.53-42.25-56.38ZM1140.96,254.3c0-23.4-7.45-37.99-19.61-37.99s-19.76,14.59-19.76,37.99,7.29,37.84,19.76,37.84,19.61-14.44,19.61-37.84Z"/>
  </g>
</svg>